# xmcd
#
# Track frame offsets: 
#        150
#        20120
#        41952
#        61694
#        81420
#        101628
#        121928
#        143767
#        166183
#        182725
#        198103
#
# Disc length: 2893 seconds
#
# Revision: 0
# Processed by: cddbd v1.5.2PL0 Copyright (c) Steve Scherf et al.
# Submitted via: ExactAudioCopy v0.95a3
#
DISCID=920b4b0b
DTITLE=Various Artist - 男孩女孩
DYEAR=2007
DGENRE=
TTITLE0=01-听听你的声音
TTITLE1=02-江湖行
TTITLE2=03-小镇姑娘
TTITLE3=04-蜗牛的家
TTITLE4=05-我不是坏女孩
TTITLE5=06-心灵之约
TTITLE6=07-这种心情
TTITLE7=08-浪子归
TTITLE8=09-傻东西
TTITLE9=10-那天晚上
TTITLE10=11-执著
EXTD=
EXTT0=
EXTT1=
EXTT2=
EXTT3=
EXTT4=
EXTT5=
EXTT6=
EXTT7=
EXTT8=
EXTT9=
EXTT10=
PLAYORDER=
